/* XPM */
static char *fdb14d53794e4ac2ef5b7cc29c686168o5uzhMQKXRH6LwR7[] = {
/* columns rows colors chars-per-pixel */
"32 32 3 1 ",
"  c #3F48CC",
". c #A9C9EA",
"X c white",
/* pixels */
"XXXXXXXXXXXXXXXXXXXXXXXXXXXXXXXX",
"XXXXXXXXXXXXXXXXXXXXXXXXXXXXXXXX",
"XXXXXXXXX  XXXXXXXXXXXXXXXXXXXXX",
"XXXXXXXX  .  XXX      XXXXXXXXXX",
"XXXXXXXX ....   ......  XXXXXXXX",
"XXXXXXXXX  .............  XXXXXX",
"XXXXXXXXXX ............... XXXXX",
"XXXXXXXXX  ................ XXXX",
"XXXXXXXXX .............  ..  XXX",
"XXXXXXXX ..............  ... XXX",
"XXXXXXX ..................... XX",
"XXXXXX  .................. ... X",
"XXXXXX .................... .. X",
"XXXXX .............  ..    . . X",
"XXXXX .......  ...    . XXX   XX",
"XXXXX ...... XX .  XX . XXXXXXXX",
"XXXXX ..... XX .. XXX  XXXXXXXXX",
"XXXXX .... XXX    XXXXXXXXXXXXXX",
"XXXXX ... XXXXXXXXXXXXXXXXXXXXXX",
"XXXXX .. XXXXXXXXXXXXXXXXXXXXXXX",
"XXXXX .. XXXXXXXXXXXXXXXXXXXXXXX",
"XXXXX .. XXXXXXXXXXXXXXXXXXXXXXX",
"XXXXX .. XXXXXXXXXXXXXXXXXXXXXXX",
"XXXX .... XXXXXXXXXXXXXXXXXXXXXX",
"XXX ......  XXXXXXXXXXXXXXXXXXXX",
"XXX ........ XXXXXXXXXXXXXXXXXXX",
"XXX ..     . XXXXXXXXXXXXXXXXXXX",
"XX ..  XXXX . XXXXXXXXXXXXXXXXXX",
"XXX  XXXXXXX XXXXXXXXXXXXXXXXXXX",
"XXXXXXXXXXXXXXXXXXXXXXXXXXXXXXXX",
"XXXXXXXXXXXXXXXXXXXXXXXXXXXXXXXX",
"XXXXXXXXXXXXXXXXXXXXXXXXXXXXXXXX"
};
