/* XPM */
static char *bd715131f0bf497394ab1e740354a554ZgxBVqSCiROVg8g0[] = {
/* columns rows colors chars-per-pixel */
"32 32 116 2 ",
"   c #FA0306",
".  c #F5090F",
"X  c #F6150F",
"o  c #F61A0F",
"O  c #F40C13",
"+  c #F20519",
"@  c #F0081B",
"#  c #EF171F",
"$  c #F31017",
"%  c #F51D11",
"&  c #F1131B",
"*  c #FB2302",
"=  c #EE0A23",
"-  c #EC1126",
";  c #ED1C24",
":  c #E91A2E",
">  c #EA232C",
",  c #E52E37",
"<  c #E82B31",
"1  c #E3333C",
"2  c #F84F0D",
"3  c #F75D10",
"4  c #EB7A2B",
"5  c #DD324A",
"6  c #E03A42",
"7  c #DB444E",
"8  c #D74D57",
"9  c #D5525D",
"0  c #D75E58",
"q  c #D15B66",
"w  c #CD646F",
"e  c #CB6771",
"r  c #CA6874",
"t  c #C7737F",
"y  c #C8707B",
"u  c #F08820",
"i  c #ED9727",
"p  c #E69B37",
"a  c #E89B32",
"s  c #E5AB3B",
"d  c #DDA94C",
"f  c #D9E955",
"g  c #D7E85C",
"h  c #D3D665",
"j  c #D3E764",
"k  c #D0E76B",
"l  c #CDE673",
"z  c #C7E47F",
"x  c #CBE578",
"c  c #CAED79",
"v  c #CAF07B",
"b  c #BF7C91",
"n  c #C27D89",
"m  c #BF8591",
"M  c #BB8E9B",
"N  c #B9919E",
"B  c #B8A59E",
"V  c #B992A0",
"C  c #B49DAB",
"Z  c #B2A0AD",
"A  c #B5B8A8",
"S  c #AFA8B6",
"D  c #B1A6B3",
"F  c #BEE295",
"G  c #BBE29C",
"H  c #BAEB9F",
"J  c #B3DFAE",
"K  c #ACDEBE",
"L  c #B0DFB3",
"P  c #B6E0A7",
"I  c #B8E1A2",
"U  c #B4E0AC",
"Y  c #ADEEBC",
"T  c #C7E482",
"R  c #C2E38C",
"E  c #C0E290",
"W  c #ABB0C0",
"Q  c #A6BDCD",
"!  c #9FCCDD",
"~  c #9FDADC",
"^  c #A6C3CB",
"/  c #AADDC3",
"(  c #A6DCCD",
")  c #A1C7D7",
"_  c #A1C9D9",
"`  c #A3DCD4",
"'  c #A1DCD9",
"]  c #9FE4DE",
"[  c #9EEEDC",
"{  c #A7E3C9",
"}  c #A5E8CE",
"|  c #A2E0D7",
" . c #A4F1D3",
".. c #9DCFE0",
"X. c #9BD4E5",
"o. c #9BDAE5",
"O. c #97D7EE",
"+. c #99D7E8",
"@. c #97DBEE",
"#. c #99D9EA",
"$. c #8ED6FF",
"%. c #95D7F4",
"&. c #95D9F3",
"*. c #92D7FA",
"=. c #92D9FA",
"-. c #9CE6E3",
";. c #98E7EC",
":. c #9CF1E4",
">. c #8BE8FF",
",. c #95E2F4",
"<. c #92E0FB",
"1. c #93E6F8",
"2. c #90E6FF",
"3. c #91E9FB",
"4. c #92EAFC",
"5. c #91ECFE",
/* pixels */
"#.#.#.#.#.#.#.#.#.#.#.#.#.#.#.#.#.#.#.#.#.#.#.#.#.#.#.#.#.#.#.#.",
"#.#.#.#.#.#.#.#.#.#.#.#.#.#.#.#.#.#.#.#.#.#.#.#.&.@.#.#.#.#.#.#.",
"#.#.#.#.#.#.#.#.#.#.#.#.#.#.#.#.#.#.#.#.#.#.#.%.-.] O.#.#.#.#.#.",
"#.#.#.#.#.#.@.,.#.#.#.#.#.#.#.#.#.#.#.#.#.#.%.;.d A 2.#.#.#.#.#.",
"#.#.#.#.#.@.#.^ &.#.#.#.#.#.#.#.#.#.#.#.#.O.1.h * 5 X.1.+.#.#.#.",
"#.#.#.#.#.3.b 4  .=.#.#.#.#.#.#.#.#.#.#.#.<.x 2 = O 8 @.,.#.#.#.",
"#.#.#.#.4.D & % p  .=.#.#.#.#.#.#.#.#.#.=.H 3 = ; ; O w 3.@.#.#.",
"#.#.#.,.X.1 O - X s :.=.#.#.#.#.#.#.#.=.Y u @ ; ; ; ; O n 3.#.#.",
"#.#.#.3.t O ; ; - % d [ =.#.#.#.#.#.%.} i O ; ; ; ; ; # O M 1.#.",
"#.#.1.Q ; & ; ; ; - o a | =.#.#.#.&.o.v B : $ ; ; ; ; ; $ > ) ,.",
"#.#.1.q O ; ; ; ; ; + 0 c ' =.#.#.=.T J >.D # & ; ; ; ; ; O M 3.",
"#.1.W & ; ; ; ; ; $ 6 %.{ k ' %.*.G R *.#.5.m O ; ; ; ; ; $ C 1.",
"#.,.9 O ; ; ; ; ; $ Z 4.*.K l &.( x &.@.#.@.1.q O ; ; ; $ 1 X.@.",
",.Q $ # ; ; ; ; $ 7 ,.@.#.*.L z T ' &.#.#.#.1..., $ ; ; O m 3.#.",
"@.X.7 . ; ; ; ; O N 4.#.#.#.$.j f *.@.#.#.#.#.5.V O ; O 9 ,.@.#.",
"#.,.X.w O ; ; & > _ ,.#.#.%./ R I R %.#.#.#.#.@.&.7   1 ! ,.#.#.",
"#.#.,.1.e O ; O 9 1.#.#.#.@.x ` $.R F *.#.#.#.#.3.M < Q 1.#.#.#.",
"#.#.#.,.,.r . O S 1.#.#.*.G G *.#.%.T G =.#.#.#.#.X.! ,.#.#.#.#.",
"#.#.#.#.&.1.y 9 @.@.#.%.( x @.@.#.@.&.T G *.#.#.#.@.,.#.#.#.#.#.",
"#.#.#.#.#.@.,.#.@.#.@.#.l ( %.#.#.#.&.&.l K *.#.#.#.#.#.#.#.#.#.",
"#.#.#.#.#.#.@.@.#.#.*.F G *.#.#.#.#.#.&.~ k ` %.#.#.#.#.#.#.#.#.",
"#.#.#.#.#.#.#.#.#.%./ x &.#.#.#.#.#.#.#.=./ l #.&.#.#.#.#.#.#.#.",
"#.#.#.#.#.#.#.#.#.@.l ( %.#.#.#.#.#.#.#.#.*.P T %.@.#.#.#.#.#.#.",
"#.#.#.#.#.#.#.#.*.E F =.#.#.#.#.#.#.#.#.#.#.=.R R *.#.#.#.#.#.#.",
"#.#.#.#.#.#.#.*./ k &.@.#.#.#.#.#.#.#.#.#.#.#.%.T F =.#.#.#.#.#.",
"#.#.#.#.#.#.@.~ g ( %.#.#.#.#.#.#.#.#.#.#.#.#.@.&.k P %.#.#.#.#.",
"#.#.#.#.#.#.&.K U *.#.#.#.#.#.#.#.#.#.#.#.#.#.#.&.~ / @.#.#.#.#.",
"#.#.#.#.#.#.#.#.%.#.#.#.#.#.#.#.#.#.#.#.#.#.#.#.#.&.&.#.#.#.#.#.",
"#.#.#.#.#.#.#.#.#.#.#.#.#.#.#.#.#.#.#.#.#.#.#.#.#.#.#.#.#.#.#.#.",
"#.#.#.#.#.#.#.#.#.#.#.#.#.#.#.#.#.#.#.#.#.#.#.#.#.#.#.#.#.#.#.#.",
"#.#.#.#.#.#.#.#.#.#.#.#.#.#.#.#.#.#.#.#.#.#.#.#.#.#.#.#.#.#.#.#.",
"#.#.#.#.#.#.#.#.#.#.#.#.#.#.#.#.#.#.#.#.#.#.#.#.#.#.#.#.#.#.#.#."
};
