/* XPM */
static char *_1c34d7ce0f443b7c0126c6dff0745ffHbeBqBnHeEdOHnZa[] = {
/* columns rows colors chars-per-pixel */
"32 32 156 2 ",
"   c #03040B",
".  c #171B4A",
"X  c #22B949",
"o  c #27B353",
"O  c #29B356",
"+  c #26BC53",
"@  c #29BC56",
"#  c #2DB45B",
"$  c #2BBB5A",
"%  c #30B55F",
"&  c #32BE5B",
"*  c #33B663",
"=  c #32BB62",
"-  c #3AB76C",
";  c #37BC68",
":  c #3BBB6E",
">  c #3EBC73",
",  c #41BB75",
"<  c #45BC7B",
"1  c #26C254",
"2  c #2AC256",
"3  c #28C852",
"4  c #2AC35A",
"5  c #2FC260",
"6  c #2FC961",
"7  c #32C564",
"8  c #33CD65",
"9  c #38C36B",
"0  c #3ACB6F",
"q  c #3DC172",
"w  c #3CCD73",
"e  c #42C574",
"r  c #45C57C",
"t  c #44D17E",
"y  c #4BD37C",
"u  c #282E81",
"i  c #30379C",
"p  c #3139A2",
"a  c #2E33B0",
"s  c #3437C9",
"d  c #373BCA",
"f  c #393ECB",
"g  c #3B36D2",
"h  c #413FD4",
"j  c #3C44CB",
"k  c #3F48CC",
"l  c #3E42D6",
"z  c #3D41DD",
"x  c #4046CC",
"c  c #424ACC",
"v  c #4958CC",
"b  c #4443D4",
"n  c #424AD2",
"m  c #4449DA",
"M  c #4E53D7",
"N  c #4F5BD4",
"B  c #545ED5",
"V  c #4B64C6",
"C  c #5B6BD3",
"Z  c #5A60DD",
"A  c #6177D7",
"S  c #637ED6",
"D  c #667DD8",
"F  c #605EE3",
"G  c #44A584",
"H  c #4CBE84",
"J  c #50BF89",
"K  c #52AB99",
"L  c #5FBA9E",
"P  c #4C8CA6",
"I  c #5294A6",
"U  c #549CA1",
"Y  c #5292AA",
"T  c #63B6B1",
"R  c #4DC185",
"E  c #48CE82",
"W  c #4FC78A",
"Q  c #4DCF89",
"!  c #53C38E",
"~  c #50CF8C",
"^  c #4FD484",
"/  c #4FD28B",
"(  c #50D38D",
")  c #56C292",
"_  c #59C395",
"`  c #5EC59C",
"'  c #5CCA9B",
"]  c #55D493",
"[  c #58D397",
"{  c #5AD995",
"}  c #5BD49B",
"|  c #61C59F",
" . c #5FD3A1",
".. c #63C6A2",
"X. c #64CDA5",
"o. c #67C8A8",
"O. c #6BCAAD",
"+. c #62D5A4",
"@. c #69D4A2",
"#. c #66D5A9",
"$. c #69D6AD",
"%. c #6AC2B4",
"&. c #6ECAB1",
"*. c #72CCB6",
"=. c #75CDBB",
"-. c #78CDBF",
";. c #6DD6B2",
":. c #71D4B5",
">. c #75D5BC",
",. c #75D8BD",
"<. c #6793C8",
"1. c #6B8BD6",
"2. c #7595DD",
"3. c #7B9AE3",
"4. c #7DA2E0",
"5. c #7FA8E0",
"6. c #7DCFC4",
"7. c #7BD5C4",
"8. c #7DDCC5",
"9. c #7FD7C9",
"0. c #7FD8C9",
"q. c #83ACE1",
"w. c #89ADE3",
"e. c #8AA9EB",
"r. c #8EBFE6",
"t. c #82D5CD",
"y. c #83DCCC",
"u. c #86D5D2",
"i. c #89D5D4",
"p. c #87D8D3",
"a. c #89D8D6",
"s. c #8ED5DB",
"d. c #8CD8DA",
"f. c #91D6DE",
"g. c #90D8DF",
"h. c #94E3DD",
"j. c #91C3E6",
"k. c #93CDE4",
"l. c #94D6E3",
"z. c #94D9E4",
"x. c #97D7E8",
"c. c #99D6E9",
"v. c #97D9E8",
"b. c #9AD9EB",
"n. c #9EDAF1",
"m. c #A0CFEF",
"M. c #A0DEED",
"N. c #A1DBF4",
"B. c #A5DBF9",
"V. c #A5DCFA",
"C. c #A9DCFF",
"Z. c #9EE1EC",
"A. c #A3EAEE",
"S. c #A5E3F4",
"D. c #A8E5F7",
"F. c #AAEFF3",
/* pixels */
"b.b.b.b.b.b.s.: s.b.b.b.n.t.< b.b.b.b.n.6.O o.N.b.b.b.b.b.b.b.b.",
"n.b.b.b.b.b.l.: t.n.b.b.b.s.H b.b.b.b.b.f.# o.N.b.b.b.b.b.b.b.n.",
";.p.b.b.n.N.b.> 6.n.b.b.b.7.q p.b.b.b.b.b.: ` N.b.b.b.b.b.z.p.:.",
"t.l.l.p.7.9.>.; 7.n.b.b.7. .4 t.B.b.b.b.b.< ) V.n.z.z.b.b.l.>.$.",
"n.t.#.[ } [ / 4 7.N.b.b.b.l.- X.,.t.b.b.n.J R a.$.7.b.b.b.b.n.N.",
"n.b.b.b.n.B.u.% t.V.n.g.z.x.q w $.$.9.b.n.! 6 [ 7.b.b.b.b.b.b.b.",
"$.t.b.b.b.n.6.* 7.7.} #.p.z.: ..C.n.l.b.n.! > n.N.b.b.b.b.z.d.d.",
"t.g.b.b.b.N.=.2 t } 9.b.n.z., _ N.b.b.b.B...: z.b.b.b.b.n.g.:.[ ",
"n.b.b.b.b.N.' 2 t.N.n.b.b.b.< R b.b.b.7.y.' - f.b.b.b.l.t.d.b.N.",
"7.b.N.n.n.B._ ; s.b.b.b.b.y.8 7 f.b.b.z.%.> 4 t.n.b.b.b.t.} ] [ ",
"z.d.:.} [ [ 0 $ u.n.c.M.t.T K G i.n.b.M.F P 2 &.N.b.b.b.b.n.g.9.",
"b.t.7.9.0.7.r # 7.n.Z.j.B m b b C c.Z.j.h Y & ..b.l.b.b.b.d.d.z.",
"b.b.n.n.N.b.H # 7.V.b.N a p n k s D F.4.g Y & r ,.z.b.b.b.p.$.] ",
"b.b.b.b.b.l.< # -.h.1.z .   n c k c t.S g U 3 E b.b.b.b.b.b.n.b.",
"b.b.b.b.b.l.< 2 t { V l i u n k k j <.v b K @ ` N.b.b.b.b.b.b.b.",
"b.z.b.b.b.l., $ O.S.C j n m k k k k n k M L # H b.b.b.b.b.b.b.b.",
"$.a.b.n.N.c., # O.D.A f k k k k k k j j Z O.1 q l.b.b.b.b.b.b.n.",
"l.b.z.9.$.[ 8 1 _ D.2.d k k k k k j x f C ^ 2 : l.N.l.z.b.z.p.>.",
"b.b.z.p.7.t.R O _ S.r.j j k k k d B w.f D @.% , t.$.7.b.b.z.9.;.",
"#.d.b.b.n.n.! O H n.S.3.c f h b C m.A.5.e.:.$ 7 ( 9.b.b.b.b.n.N.",
"d.d.b.b.b.n._ O < d.0.8.k.q.I G y 8.z.Z.S.O.@ 5 s.N.b.b.b.b.z.b.",
"b.b.b.b.b.n._ O 7 ] #.a.n.Z.e X W p.g.n.B.O.# ; s.b.b.b.b.b.t.#.",
"b.b.b.b.b.b.! o , b.N.n.b.t.9 + ` V.v.a.a.' # = a.n.b.b.b.b.b.a.",
"b.b.b.n.N.b.< O H b.b.l.;.] 7 + ` N.z.t.$.E 1 2 i.N.z.b.b.b.b.b.",
"n.b.t.;.+.[ 7 1 ' N.b.z.b.s.- O | N.b.b.B.-.# * X.,.g.b.b.z.b.b.",
"9.b.l.t.9.:.9 + ` B.N.b.n.t.; # O.N.b.b.n.6.* 1 Q l.b.b.b.b.7.p.",
"+.;.l.n.N.f.- # ` d.;.7.n.6.= @ X.z.b.b.n.i.; @ &.V.b.b.b.b.l.} ",
"n.z.z.b.b.s.: 2 w [ >.z.N.-.= 2 Q $.t.b.b.>.= $ ! n.b.b.p.v.b.b.",
"b.b.b.b.b.l.q + R N.n.b.B.6.% O -.N.z.b.b.a.e 1 : c.n.#.t.b.b.b.",
"$.a.b.b.b.b.H # , z.b.z.t.~ 4 $ -.N.b.b.b.N.| # ; >.} ;.N.z.a.z.",
"l.b.b.b.b.n._ # * t.N.g.t.' # * t.n.b.b.b.N.=.$ 2 w 7.n.b.l.>.[ ",
"b.b.b.b.b.N.*.* * &.N.b.B.` % ; u.n.b.b.b.n.i.; @ ! B.b.b.b.n.z."
};
