/* XPM */
static char *_bcfcbd90145419ce9b0150a7bda5baaQDv11gGaG9DcKr2T[] = {
/* columns rows colors chars-per-pixel */
"32 32 99 2 ",
"   c #26B453",
".  c #29B356",
"X  c #26BC53",
"o  c #29BC56",
"O  c #2DB35A",
"+  c #2BBB5A",
"@  c #30B55F",
"#  c #33B662",
"$  c #32BB62",
"%  c #3AB76C",
"&  c #37BC68",
"*  c #3BBB6E",
"=  c #3FBB73",
"-  c #41BB75",
";  c #45BC7B",
":  c #26C254",
">  c #28C357",
",  c #2AC35A",
"<  c #2FC260",
"1  c #2FC961",
"2  c #32C464",
"3  c #32CA65",
"4  c #38C36B",
"5  c #35C969",
"6  c #3ACB6F",
"7  c #3DC172",
"8  c #3CCD73",
"9  c #40C675",
"0  c #45C47C",
"q  c #44CE7D",
"w  c #44D17E",
"e  c #4CBE84",
"r  c #4FBF88",
"t  c #52BF8C",
"y  c #4CC284",
"u  c #48CE82",
"i  c #4FC389",
"p  c #4DCF89",
"a  c #53C38E",
"s  c #50CF8C",
"d  c #4FD28B",
"f  c #50D38D",
"g  c #56C591",
"h  c #59C395",
"j  c #5EC59C",
"k  c #5CCA9B",
"l  c #55D493",
"z  c #58D397",
"x  c #5BD49B",
"c  c #61C59F",
"v  c #5FD3A1",
"b  c #63C6A3",
"n  c #63CCA4",
"m  c #67C8A8",
"M  c #6BCAAD",
"N  c #62D5A4",
"B  c #66D5A9",
"V  c #69D6AD",
"C  c #6ECAB1",
"Z  c #72CCB6",
"A  c #75CDBB",
"S  c #78CDBF",
"D  c #6DD6B2",
"F  c #70D6B6",
"G  c #75D5BC",
"H  c #75D8BD",
"J  c #7DCFC4",
"K  c #7BD6C4",
"L  c #7BD8C4",
"P  c #7FD7C9",
"I  c #7FD8C9",
"U  c #82D5CC",
"Y  c #82D9CD",
"T  c #86D5D2",
"R  c #89D5D4",
"E  c #87D8D3",
"W  c #89D8D6",
"Q  c #8ED5DB",
"!  c #8CD8DA",
"~  c #90D5DE",
"^  c #90D8DF",
"/  c #94D6E3",
"(  c #91D8E0",
")  c #93D8E2",
"_  c #94D9E3",
"`  c #96D8E6",
"'  c #97D7E8",
"]  c #98D7E8",
"[  c #97D9E8",
"{  c #99D9EA",
"}  c #9BD9EC",
"|  c #9CD9EE",
" . c #9ED9F1",
".. c #A0DBF3",
"X. c #A1DAF4",
"o. c #A2DCF6",
"O. c #A4DBF8",
"+. c #A5DCF9",
"@. c #A9DCFF",
/* pixels */
"{ { { { { | Q * Q | { {  .U ; | { { {  .J . m o.{ { { { { { { { ",
" .} { { { } ( * U  .{ { | Q e { { { { | ~ O m o.{ { { { { { |  .",
"D E | |  .X.{ = J  .{ } { K 7 E | { { { } * j o.{ { { { { ` E F ",
"Y ( ( E L P G & K  .{ { L v , U O.| { { | ; g +. .` ` { } ( G V ",
" .Y B z x z d > K ..{ { } / % n H Y { }  .t y W V K { { { }  ...",
" .| } |  .O.T @ U +. .^ _ ' 7 8 V V P |  .a 1 z L { } { { { } } ",
"V U { { {  .J # K L x B E ` * b @. .( {  .a =  ...{ { { { ` ! ! ",
"Y ^ { { { ..A > w x P }  .` - h X.{ { { O.b * ` } { { {  .^ F z ",
" .} { { { X.k > U X. .{ } | ; y | } { L Y j % ~ | { } ( Y ! } ..",
"K { .. . .O.h & Q | { } } P 5 4 ( | } ( D 8 > U  .{ { { U x l z ",
"_ ! F x z z 6 + T  .{ | U F y # U  .{ } O.M X C o.{ { { |  .^ P ",
"{ U K P I K 0 O K  .{ { {  .t O J X.{ {  .M O b { ( { { { ! ! _ ",
"{ |  . ...} e O K X. ... .} i o M }  .{  .m O 0 H ` { { { E V l ",
"{ { { { } / ; O S ! P D P ` i : q z G {  .c X u } } { { { |  .{ ",
"{ { { { } / ; > w l x F E ` r O C } P ! X.j   j X.{ { { { { { { ",
"{ ` { { } ( - + M X. ... .} e O m X.| {  .b O e { } { { { { { { ",
"V W }  .X.] - O M X.{ {  .{ 0 X h  .{ { O.M : 7 / } } { { { |  .",
"( | ` P V z 3 : h  .{ [ U N 5 : g  .{ { E u o * / X.( ` } ` E G ",
"| | ` E L U y . h  .{ { ( ( e O h  .{ ` W b @ - U V K { } _ P D ",
"B ! } |  . .a . e  . .| | | e . h O.{ { O.M + 2 f P | { { {  ...",
"! ! { { {  .h . ; ! P K ` { e X 8 P ` { ..M o < Q X.{ { { { ` | ",
"} } { { {  .h . 2 l B W | / ;   a E ^  .O.M O & Q | { { { } Y B ",
"{ { { { { | a   - { .. .} U 4 X j +.[ W W k O $ W  .{ { { { } W ",
"{ { |  .X.} ; . e | | ( D l 2 X j X.` U V u : > R X.` { { { { | ",
" .{ U D N z 2 : k ..{ ` { Q % . c X.{ | O.S O # n H ^ } { ` { | ",
"P } ( Y P F 4 X j O...{  .U & O M o.{ {  .J # : p ( | { { { K E ",
"N D (  .X.~ % O j ! D K  .J $ o n ` { {  .R & o C +.{ { } } ( x ",
" .` ` { | Q * > 8 z G ` X.S $ > p V Y } } G $ + a  .} } E [ | { ",
"{ { { { | ( 7 X y X. .} O.J @ O S o.` { { W 9 : * ]  .B U | | } ",
"V W } { } { e O - ` | ` Y s > + S X.{ { { X.c O & G x D X.` W _ ",
"( { { { {  .h O # U ..^ Y k O # U  .{ { { ..A + > 8 K  .} ( G z ",
"} { { { { ..Z # # C ..} O.j @ & T  .{ { {  .R & o a O.{ { }  .` "
};
