/* XPM */
static char *_cbb6961a756458ed645f936ba409838yJmRhF3dhiXSMIka[] = {
/* columns rows colors chars-per-pixel */
"32 32 125 2 ",
"   c #1B2F1B",
".  c #1B351D",
"X  c #163B1C",
"o  c #183B1D",
"O  c #1E3420",
"+  c #1D3C23",
"@  c #2D2326",
"#  c #252F23",
"$  c #2E2C2A",
"%  c #312B2D",
"&  c #233525",
"*  c #223A26",
"=  c #2B332B",
"-  c #263E2D",
";  c #293E2F",
":  c #362F34",
">  c #382D35",
",  c #2F3731",
"<  c #2D3A31",
"1  c #333233",
"2  c #383036",
"3  c #3B363C",
"4  c #393B3D",
"5  c #0C4D1C",
"6  c #15441E",
"7  c #11491D",
"8  c #0C541E",
"9  c #174421",
"0  c #1A4525",
"q  c #134D23",
"w  c #194A26",
"e  c #1E4729",
"r  c #1C4C2A",
"t  c #0E5522",
"y  c #0E5A24",
"u  c #145426",
"i  c #105925",
"p  c #175128",
"a  c #195129",
"s  c #145B2A",
"d  c #185A2E",
"f  c #1C5D33",
"g  c #24432D",
"h  c #28402F",
"j  c #20492C",
"k  c #2C4033",
"l  c #2F483A",
"z  c #235435",
"x  c #215935",
"c  c #275A3C",
"v  c #1A6233",
"b  c #1E6539",
"n  c #22623B",
"m  c #3D3E42",
"M  c #403F46",
"N  c #354E42",
"B  c #3E4847",
"V  c #2F5641",
"C  c #2E5B43",
"Z  c #315844",
"A  c #3D5B51",
"S  c #2C6646",
"D  c #246C42",
"F  c #2B6A48",
"G  c #35644F",
"H  c #30694C",
"J  c #267046",
"K  c #2B744D",
"L  c #3F6357",
"P  c #356F54",
"I  c #386A54",
"U  c #327654",
"Y  c #337A57",
"T  c #357758",
"R  c #397159",
"E  c #38775A",
"W  c #337B58",
"Q  c #37785B",
"!  c #38795C",
"~  c #387D5E",
"^  c #424A4E",
"/  c #455455",
"(  c #42655C",
")  c #4E6566",
"_  c #466A61",
"`  c #467366",
"'  c #4A726A",
"]  c #566970",
"[  c #5B6E78",
"{  c #5B7C7F",
"}  c #38805F",
"|  c #3F876A",
" . c #428269",
".. c #4A8171",
"X. c #4A8673",
"o. c #428D70",
"O. c #4E8A79",
"+. c #4A8F79",
"@. c #518A7C",
"#. c #5F8286",
"$. c #528E80",
"%. c #558E82",
"&. c #539584",
"*. c #5F9A92",
"=. c #66808B",
"-. c #68828E",
";. c #608F8D",
":. c #6A8490",
">. c #6D8E99",
",. c #609D94",
"<. c #5CA394",
"1. c #61A79B",
"2. c #6CAEA9",
"3. c #77A3AE",
"4. c #7AA0AF",
"5. c #7BBEC0",
"6. c #80ACBC",
"7. c #86B8C7",
"8. c #83BCC6",
"9. c #86BCC9",
"0. c #89B9CA",
"q. c #80C1C6",
"w. c #87C9D1",
"e. c #97D6E7",
"r. c #9AD4E7",
/* pixels */
"s 8 ~ 8.4.P R p X.0.S f z D } 1.;.L I E ! | U s D +.D b s i n U ",
"( q 8 5 o w - , q * : e t C ^ + 9 = 2 4 M ] c i i u f p e e r n ",
"e h u i p i i h j p 1 1 a q % : < e - : - 7 t i i u e - e a p s ",
"K a p i r h p p i y r 1 ; y j 1 1 ; e r p i i u r e j p r e 5 Q ",
"' + u i i e e 1 < j i u r j p ; e y i i p i u j e p r ; ; p X 6.",
"` % e a y i r 1 1 : < i y e e y p h < a y i i u p g 1 < u r h $.",
"..* h 1 e y i < : 1 e i i p r i r 1 e y i r i i p u p i i p d D ",
" .j ; > 1 a y a < < i p u r < < p i i p j - a y i i y p h ; j J ",
"v f w h < j i p p r u u i i r j i y r r e j h ; p y r 1 < e q S ",
"i i i i i i i i p i p r i i i y y y i y p ; 1 > e i h e p j ; d ",
"e p r e p i i i i u r p p p i e h e i e e u < h p p i j 1 1 r y ",
"z y y u r j < j a ; h e i i u < > : j ; : 1 ; i r h r , < i t V ",
"b e j < 1 1 : < i ; : r p p r j , 1 ; e 1 < u a ; 1 e p i i * / ",
"O.# > 1 1 1 1 1 r r r r h r < h j j e u r i u r a i i y i p u d ",
"*.. 1 1 1 1 < 1 ; y p 1 < p 1 1 - h 1 h p j 1 h a u i ; ; j & @.",
"5.6 : 1 ; j , 1 j r r 1 1 p j e h , 1 ; r 1 j r j u - : 1 h % [ ",
"<.x k e j 1 1 ; j 1 p h e i r 1 1 1 1 r r e h - p j 1 1 ; - 1 $ ",
"8 s s u e e e r j p y i h h r 1 1 1 j i e 1 < p r 1 1 1 h ; 1 1 ",
"W n - h h e u i i p r j > h h e 1 j r ; ; < j e ; 1 1 1 h h : 4 ",
"2.H = > < r i r e ; h j < h < h r g 1 1 h ; 1 e ; 1 1 1 ; j 1 $ ",
"&.G q r y u e 1 h < j e r h ; : p r ; ; j < < < h 1 1 1 ; j & ] ",
"J s y i h < < : j < j e j a h h e p p e r j r a a < 1 1 ; j & <.",
"d w u p 1 1 < 1 j ; e e , p i r 1 < u p r j 1 ; p p u i p i a v ",
"B = u r 1 1 1 1 j e < j j a y < 1 1 < p i u e 1 ; ; 1 h r i s b ",
":.& p 1 1 1 1 1 j e > ; y r a e 1 1 1 < p p a u a r < , < 0 N &.",
"3.q - 1 h < 1 1 h j h i r e j i h 1 < 1 < p u p i i i u i q Z q.",
"= p < j ; 1 1 : ; i y j 1 j i u p e h < 1 1 r i p i p ; h r s t ",
"^ w r h 1 1 1 h p y j 1 1 1 j i i u < : 1 1 1 r i i i r , = S 2.",
"7.$ ; h : < r u i i ; : 1 1 j p i i i < : 1 1 - ; i i i y u w w.",
">.@ 1 e j u e r 0 + e 3 < r h < p r i i h 1 : h ; - 5 j + 8 8 D ",
"#.O e i y h < w A { D %.f   @ @ 9 g & u y a ; 1 j l A D -.N 7 5 ",
"b t s b d p i v Y ~ v b ,.:.{ =._ d ) m e y t x F Y e.K o.r.9.T "
};
